<mxfile host="app.diagrams.net" modified="2024-04-02T08:03:54.626Z" agent="Mozilla/5.0 (Windows NT 10.0; Win64; x64) AppleWebKit/537.36 (KHTML, like Gecko) Chrome/122.0.0.0 Safari/537.36" etag="0IcZ2_duMOn4qcVBzdmg" version="24.2.1" type="github">
  <diagram name="Page-1" id="58cdce13-f638-feb5-8d6f-7d28b1aa9fa0">
    <mxGraphModel dx="1377" dy="1019" grid="1" gridSize="10" guides="1" tooltips="1" connect="1" arrows="1" fold="1" page="1" pageScale="1" pageWidth="1100" pageHeight="850" background="none" math="0" shadow="0">
      <root>
        <mxCell id="0" />
        <mxCell id="1" parent="0" />
        <mxCell id="av3OSLEWApw4BITMHY0_-1" value="check betaald" style="edgeStyle=orthogonalEdgeStyle;rounded=0;orthogonalLoop=1;jettySize=auto;html=1;" edge="1" parent="1" source="av3OSLEWApw4BITMHY0_-3" target="av3OSLEWApw4BITMHY0_-11">
          <mxGeometry relative="1" as="geometry">
            <Array as="points">
              <mxPoint x="800" y="170" />
              <mxPoint x="310" y="170" />
            </Array>
          </mxGeometry>
        </mxCell>
        <mxCell id="av3OSLEWApw4BITMHY0_-2" value="Transactions&lt;br&gt;with AdminGLN + ID xml&lt;br&gt;(Camt053)" style="edgeStyle=orthogonalEdgeStyle;rounded=0;orthogonalLoop=1;jettySize=auto;html=1;" edge="1" parent="1" source="av3OSLEWApw4BITMHY0_-3" target="av3OSLEWApw4BITMHY0_-26">
          <mxGeometry x="-0.1968" y="10" relative="1" as="geometry">
            <Array as="points">
              <mxPoint x="820" y="330" />
              <mxPoint x="820" y="330" />
            </Array>
            <mxPoint as="offset" />
            <mxPoint x="870" y="510" as="targetPoint" />
          </mxGeometry>
        </mxCell>
        <mxCell id="av3OSLEWApw4BITMHY0_-3" value="EMSpay Online&lt;br&gt;(inc Ideal, CreditCard, etc" style="rounded=0;whiteSpace=wrap;html=1;" vertex="1" parent="1">
          <mxGeometry x="780" y="50" width="120" height="60" as="geometry" />
        </mxCell>
        <mxCell id="av3OSLEWApw4BITMHY0_-4" value="betaling Shop" style="edgeStyle=orthogonalEdgeStyle;rounded=0;orthogonalLoop=1;jettySize=auto;html=1;" edge="1" parent="1" source="av3OSLEWApw4BITMHY0_-7" target="av3OSLEWApw4BITMHY0_-3">
          <mxGeometry relative="1" as="geometry">
            <Array as="points">
              <mxPoint x="740" y="80" />
              <mxPoint x="740" y="80" />
            </Array>
          </mxGeometry>
        </mxCell>
        <mxCell id="av3OSLEWApw4BITMHY0_-5" style="edgeStyle=orthogonalEdgeStyle;rounded=0;orthogonalLoop=1;jettySize=auto;html=1;startArrow=classic;startFill=1;strokeColor=#FF0000;strokeWidth=3;" edge="1" parent="1" source="av3OSLEWApw4BITMHY0_-7" target="av3OSLEWApw4BITMHY0_-11">
          <mxGeometry relative="1" as="geometry">
            <mxPoint x="350" y="180" as="targetPoint" />
            <Array as="points">
              <mxPoint x="473" y="150" />
              <mxPoint x="280" y="150" />
            </Array>
          </mxGeometry>
        </mxCell>
        <mxCell id="av3OSLEWApw4BITMHY0_-6" value="&lt;div style=&quot;text-align: left;&quot;&gt;&lt;span style=&quot;background-color: initial;&quot;&gt;GTIN updates&lt;/span&gt;&lt;br&gt;&lt;/div&gt;&lt;span style=&quot;background-color: initial;&quot;&gt;&lt;div style=&quot;text-align: left;&quot;&gt;&lt;br&gt;&lt;/div&gt;&lt;/span&gt;" style="edgeStyle=orthogonalEdgeStyle;rounded=0;orthogonalLoop=1;jettySize=auto;html=1;labelBackgroundColor=none;jumpStyle=arc;" edge="1" parent="1" source="av3OSLEWApw4BITMHY0_-7" target="av3OSLEWApw4BITMHY0_-18">
          <mxGeometry x="-0.6615" relative="1" as="geometry">
            <Array as="points">
              <mxPoint x="430" y="140" />
              <mxPoint x="180" y="140" />
            </Array>
            <mxPoint as="offset" />
          </mxGeometry>
        </mxCell>
        <mxCell id="av3OSLEWApw4BITMHY0_-7" value="MyPortal" style="rounded=0;whiteSpace=wrap;html=1;strokeColor=#FF8000;strokeWidth=3;" vertex="1" parent="1">
          <mxGeometry x="417.5" y="50" width="110" height="60" as="geometry" />
        </mxCell>
        <mxCell id="av3OSLEWApw4BITMHY0_-8" value="License&lt;br&gt;&amp;nbsp;CRUD" style="edgeStyle=orthogonalEdgeStyle;rounded=0;orthogonalLoop=1;jettySize=auto;html=1;labelBackgroundColor=none;" edge="1" parent="1" source="av3OSLEWApw4BITMHY0_-11" target="av3OSLEWApw4BITMHY0_-18">
          <mxGeometry x="-0.3333" y="-20" relative="1" as="geometry">
            <Array as="points">
              <mxPoint x="240" y="385" />
              <mxPoint x="220" y="385" />
            </Array>
            <mxPoint as="offset" />
          </mxGeometry>
        </mxCell>
        <mxCell id="av3OSLEWApw4BITMHY0_-9" style="edgeStyle=orthogonalEdgeStyle;rounded=0;jumpStyle=arc;orthogonalLoop=1;jettySize=auto;html=1;labelBackgroundColor=none;" edge="1" parent="1" source="av3OSLEWApw4BITMHY0_-11" target="av3OSLEWApw4BITMHY0_-19">
          <mxGeometry relative="1" as="geometry">
            <Array as="points">
              <mxPoint x="260" y="70" />
            </Array>
          </mxGeometry>
        </mxCell>
        <mxCell id="av3OSLEWApw4BITMHY0_-10" value="Verkoop regels&amp;nbsp; &lt;br&gt;Accounting_Output(XML)&amp;nbsp;" style="edgeStyle=orthogonalEdgeStyle;rounded=0;orthogonalLoop=1;jettySize=auto;html=1;" edge="1" parent="1" source="av3OSLEWApw4BITMHY0_-11" target="av3OSLEWApw4BITMHY0_-15">
          <mxGeometry x="0.2214" relative="1" as="geometry">
            <Array as="points">
              <mxPoint x="300" y="430" />
              <mxPoint x="443" y="430" />
            </Array>
            <mxPoint as="offset" />
          </mxGeometry>
        </mxCell>
        <mxCell id="av3OSLEWApw4BITMHY0_-11" value="Dataverse" style="rounded=0;whiteSpace=wrap;html=1;strokeColor=#990099;strokeWidth=3;" vertex="1" parent="1">
          <mxGeometry x="220" y="250" width="120" height="60" as="geometry" />
        </mxCell>
        <mxCell id="av3OSLEWApw4BITMHY0_-12" value="Business Central bank plugin" style="edgeStyle=orthogonalEdgeStyle;rounded=0;orthogonalLoop=1;jettySize=auto;html=1;strokeColor=#009900;strokeWidth=3;dashed=1;" edge="1" parent="1" source="av3OSLEWApw4BITMHY0_-13" target="av3OSLEWApw4BITMHY0_-22">
          <mxGeometry x="0.2" relative="1" as="geometry">
            <Array as="points">
              <mxPoint x="990" y="120" />
              <mxPoint x="990" y="120" />
            </Array>
            <mxPoint as="offset" />
            <mxPoint x="890" y="510" as="targetPoint" />
          </mxGeometry>
        </mxCell>
        <mxCell id="av3OSLEWApw4BITMHY0_-13" value="Bank" style="rounded=0;whiteSpace=wrap;html=1;strokeColor=#009900;strokeWidth=3;" vertex="1" parent="1">
          <mxGeometry x="921" y="50" width="120" height="60" as="geometry" />
        </mxCell>
        <mxCell id="av3OSLEWApw4BITMHY0_-14" value="facturen pdf" style="edgeStyle=orthogonalEdgeStyle;rounded=0;orthogonalLoop=1;jettySize=auto;html=1;startArrow=none;startFill=0;" edge="1" parent="1" source="av3OSLEWApw4BITMHY0_-15" target="av3OSLEWApw4BITMHY0_-11">
          <mxGeometry x="-0.3158" y="10" relative="1" as="geometry">
            <Array as="points">
              <mxPoint x="410" y="470" />
              <mxPoint x="280" y="470" />
            </Array>
            <mxPoint as="offset" />
          </mxGeometry>
        </mxCell>
        <mxCell id="av3OSLEWApw4BITMHY0_-15" value="Blob storage Invoices&lt;br&gt;- facturen&lt;br&gt;-Accounting_Output" style="rounded=0;whiteSpace=wrap;html=1;" vertex="1" parent="1">
          <mxGeometry x="382.5" y="510" width="120" height="60" as="geometry" />
        </mxCell>
        <mxCell id="av3OSLEWApw4BITMHY0_-16" value="" style="edgeStyle=orthogonalEdgeStyle;rounded=0;orthogonalLoop=1;jettySize=auto;html=1;startArrow=none;startFill=0;" edge="1" parent="1" source="av3OSLEWApw4BITMHY0_-17" target="av3OSLEWApw4BITMHY0_-11">
          <mxGeometry relative="1" as="geometry">
            <Array as="points">
              <mxPoint x="260" y="400" />
              <mxPoint x="260" y="400" />
            </Array>
          </mxGeometry>
        </mxCell>
        <mxCell id="av3OSLEWApw4BITMHY0_-17" value="Sharepoint&lt;br&gt;templates" style="rounded=0;whiteSpace=wrap;html=1;" vertex="1" parent="1">
          <mxGeometry x="250" y="510" width="120" height="60" as="geometry" />
        </mxCell>
        <mxCell id="av3OSLEWApw4BITMHY0_-18" value="Activate" style="rounded=0;whiteSpace=wrap;html=1;" vertex="1" parent="1">
          <mxGeometry x="120" y="510" width="120" height="60" as="geometry" />
        </mxCell>
        <mxCell id="av3OSLEWApw4BITMHY0_-19" value="Email Out" style="verticalLabelPosition=bottom;html=1;verticalAlign=top;align=center;strokeColor=none;fillColor=#00BEF2;shape=mxgraph.azure.message;pointerEvents=1;labelBackgroundColor=none;" vertex="1" parent="1">
          <mxGeometry x="180" y="52.5" width="50" height="37.5" as="geometry" />
        </mxCell>
        <mxCell id="av3OSLEWApw4BITMHY0_-21" value="Via Virtuele tabellen van Business Central&lt;div&gt;&amp;nbsp;in Dataverse en PowerAutomate flows worden gegevens tussen&lt;/div&gt;&lt;div&gt;Dataverse en Business Central gesynchroniseerd&amp;nbsp;&lt;/div&gt;" style="edgeStyle=orthogonalEdgeStyle;rounded=0;orthogonalLoop=1;jettySize=auto;html=1;startArrow=classic;startFill=1;strokeWidth=3;" edge="1" parent="1" source="av3OSLEWApw4BITMHY0_-30" target="av3OSLEWApw4BITMHY0_-11">
          <mxGeometry x="-0.1176" y="-82" relative="1" as="geometry">
            <Array as="points">
              <mxPoint x="540" y="380" />
              <mxPoint x="540" y="280" />
            </Array>
            <mxPoint x="80" y="62" as="offset" />
          </mxGeometry>
        </mxCell>
        <mxCell id="av3OSLEWApw4BITMHY0_-22" value="Business Central" style="rounded=0;whiteSpace=wrap;html=1;strokeColor=#990099;strokeWidth=3;" vertex="1" parent="1">
          <mxGeometry x="930" y="250" width="120" height="60" as="geometry" />
        </mxCell>
        <mxCell id="av3OSLEWApw4BITMHY0_-23" value="Gebruiker Business Central&lt;div&gt;importeert dagelijk de&lt;/div&gt;&lt;div&gt;gedownloadde transacties&lt;/div&gt;" style="edgeStyle=orthogonalEdgeStyle;rounded=0;orthogonalLoop=1;jettySize=auto;html=1;dashed=1;" edge="1" parent="1" source="av3OSLEWApw4BITMHY0_-24" target="av3OSLEWApw4BITMHY0_-28">
          <mxGeometry relative="1" as="geometry">
            <Array as="points">
              <mxPoint x="990" y="501" />
              <mxPoint x="990" y="415" />
            </Array>
          </mxGeometry>
        </mxCell>
        <mxCell id="av3OSLEWApw4BITMHY0_-24" value="" style="sketch=0;pointerEvents=1;shadow=0;dashed=0;html=1;strokeColor=none;fillColor=#505050;labelPosition=center;verticalLabelPosition=bottom;outlineConnect=0;verticalAlign=top;align=center;shape=mxgraph.office.clouds.cloud_sharepoint;" vertex="1" parent="1">
          <mxGeometry x="768.77" y="470" width="101" height="61" as="geometry" />
        </mxCell>
        <mxCell id="av3OSLEWApw4BITMHY0_-25" style="edgeStyle=orthogonalEdgeStyle;rounded=0;orthogonalLoop=1;jettySize=auto;html=1;" edge="1" parent="1" source="av3OSLEWApw4BITMHY0_-26" target="av3OSLEWApw4BITMHY0_-24">
          <mxGeometry relative="1" as="geometry">
            <Array as="points">
              <mxPoint x="819" y="530" />
            </Array>
          </mxGeometry>
        </mxCell>
        <mxCell id="av3OSLEWApw4BITMHY0_-26" value="Camt053 daily download" style="shape=image;verticalLabelPosition=bottom;labelBackgroundColor=#ffffff;verticalAlign=top;aspect=fixed;imageAspect=0;image=data:image/svg+xml,PHN2ZyB4bWxucz0iaHR0cDovL3d3dy53My5vcmcvMjAwMC9zdmciIHdpZHRoPSIxMDIiIGhlaWdodD0iNzgiIHZpZXdCb3g9Ii01IDEwIDEwMiA3OCIgZmlsbD0ibm9uZSI+JiN4YTsgIDxkZWZzPiYjeGE7ICAgIDxmaWx0ZXIgaWQ9ImZpbHRlcjBfZiI+JiN4YTsgICAgICA8ZmVGbG9vZCBmbG9vZC1vcGFjaXR5PSIwIiByZXN1bHQ9IkJhY2tncm91bmRJbWFnZUZpeCIvPiYjeGE7ICAgICAgPGZlQmxlbmQgbW9kZT0ibm9ybWFsIiBpbj0iU291cmNlR3JhcGhpYyIgaW4yPSJCYWNrZ3JvdW5kSW1hZ2VGaXgiIHJlc3VsdD0ic2hhcGUiLz4mI3hhOyAgICAgIDxmZUdhdXNzaWFuQmx1ciBzdGREZXZpYXRpb249IjAuNCIgcmVzdWx0PSJlZmZlY3QxX2ZvcmVncm91bmRCbHVyIi8+JiN4YTsgICAgPC9maWx0ZXI+JiN4YTsgICAgPGZpbHRlciBpZD0iZmlsdGVyMV9mIj4mI3hhOyAgICAgIDxmZUZsb29kIGZsb29kLW9wYWNpdHk9IjAiIHJlc3VsdD0iQmFja2dyb3VuZEltYWdlRml4Ii8+JiN4YTsgICAgICA8ZmVCbGVuZCBtb2RlPSJub3JtYWwiIGluPSJTb3VyY2VHcmFwaGljIiBpbjI9IkJhY2tncm91bmRJbWFnZUZpeCIgcmVzdWx0PSJzaGFwZSIvPiYjeGE7ICAgICAgPGZlR2F1c3NpYW5CbHVyIHN0ZERldmlhdGlvbj0iNCIgcmVzdWx0PSJlZmZlY3QxX2ZvcmVncm91bmRCbHVyIi8+JiN4YTsgICAgPC9maWx0ZXI+JiN4YTsgICAgPGxpbmVhckdyYWRpZW50IGlkPSJwYWludDBfbGluZWFyIiB4MT0iNDMiIHkxPSI1NSIgeDI9IjI5IiB5Mj0iMTAiIGdyYWRpZW50VW5pdHM9InVzZXJTcGFjZU9uVXNlIj4mI3hhOyAgICAgIDxzdG9wIHN0b3AtY29sb3I9IiMwRDM2QTUiLz4mI3hhOyAgICAgIDxzdG9wIG9mZnNldD0iMSIgc3RvcC1jb2xvcj0iIzExNTJENCIvPiYjeGE7ICAgIDwvbGluZWFyR3JhZGllbnQ+JiN4YTsgICAgPGxpbmVhckdyYWRpZW50IGlkPSJwYWludDFfbGluZWFyIiB4MT0iNDYiIHkxPSIxMCIgeDI9IjQ2IiB5Mj0iODYiIGdyYWRpZW50VW5pdHM9InVzZXJTcGFjZU9uVXNlIj4mI3hhOyAgICAgIDxzdG9wIHN0b3AtY29sb3I9IiM4NENBRkYiLz4mI3hhOyAgICAgIDxzdG9wIG9mZnNldD0iMSIgc3RvcC1jb2xvcj0iIzYxQjFGQiIvPiYjeGE7ICAgIDwvbGluZWFyR3JhZGllbnQ+JiN4YTsgICAgPGxpbmVhckdyYWRpZW50IGlkPSJwYWludDJfbGluZWFyIiB4MT0iMzcuNSIgeTE9IjEwIiB4Mj0iMzcuNSIgeTI9Ijg2IiBncmFkaWVudFVuaXRzPSJ1c2VyU3BhY2VPblVzZSI+JiN4YTsgICAgICA8c3RvcCBzdG9wLWNvbG9yPSIjM0I5MEY1Ii8+JiN4YTsgICAgICA8c3RvcCBvZmZzZXQ9IjEiIHN0b3AtY29sb3I9IiMyQTc4RUUiLz4mI3hhOyAgICA8L2xpbmVhckdyYWRpZW50PiYjeGE7ICAgIDxjbGlwUGF0aCBpZD0iY2xpcDAiPiYjeGE7ICAgICAgPHJlY3Qgd2lkdGg9Ijk2IiBoZWlnaHQ9Ijk2IiBmaWxsPSJ3aGl0ZSIvPiYjeGE7ICAgIDwvY2xpcFBhdGg+JiN4YTsgICAgPGNsaXBQYXRoIGlkPSJjbGlwMSI+JiN4YTsgICAgICA8cmVjdCB3aWR0aD0iOTYiIGhlaWdodD0iOTYiIGZpbGw9IndoaXRlIi8+JiN4YTsgICAgPC9jbGlwUGF0aD4mI3hhOyAgPC9kZWZzPiYjeGE7ICA8ZyBjbGlwLXBhdGg9InVybCgjY2xpcDApIj4mI3hhOyAgICA8ZyBjbGlwLXBhdGg9InVybCgjY2xpcDEpIj4mI3hhOyAgICAgIDxtYXNrIGlkPSJtYXNrMCIgbWFzay10eXBlPSJhbHBoYSIgbWFza1VuaXRzPSJ1c2VyU3BhY2VPblVzZSIgeD0iLTEiIHk9IjEwIiB3aWR0aD0iOTciIGhlaWdodD0iNzYiPiYjeGE7ICAgICAgICA8cGF0aCBkPSJNNjEuMjExNiAxMEM2Mi4zNDk2IDEwIDYzLjQzMzcgMTAuNDg0NyA2NC4xOTI1IDExLjMzMjhMOTQuNjEzNiA0NS4zMzI4Qzk1Ljk3MjMgNDYuODUxNCA5NS45NzIzIDQ5LjE0ODYgOTQuNjEzNiA1MC42NjcyTDY0LjE5MjUgODQuNjY3MkM2My40MzM3IDg1LjUxNTMgNjIuMzQ5NiA4NiA2MS4yMTE2IDg2SDMuOTQ2MzRDMC40ODg3NzcgODYgLTEuMzQwMTIgODEuOTA5NSAwLjk2NTM2NiA3OS4zMzI4TDI5IDQ4TDAuOTY1MzY2IDE2LjY2NzJDLTEuMzQwMTIgMTQuMDkwNSAwLjQ4ODc3NyAxMCAzLjk0NjM0IDEwSDYxLjIxMTZaIiBmaWxsPSJ3aGl0ZSIvPiYjeGE7ICAgICAgPC9tYXNrPiYjeGE7ICAgICAgPGcgbWFzaz0idXJsKCNtYXNrMCkiPiYjeGE7ICAgICAgICA8cGF0aCBkPSJNNjMgMTBMMjkgNDhMLTUgMTBINjNaIiBmaWxsPSJ1cmwoI3BhaW50MF9saW5lYXIpIi8+JiN4YTsgICAgICAgIDxnIGZpbHRlcj0idXJsKCNmaWx0ZXIwX2YpIj4mI3hhOyAgICAgICAgICA8cGF0aCBkPSJNNjMgMTAuNEwtNSA4Ni40SDYzTDk3IDQ4LjRMNjMgMTAuNFoiIGZpbGw9ImJsYWNrIiBmaWxsLW9wYWNpdHk9IjAuMjQiLz4mI3hhOyAgICAgICAgPC9nPiYjeGE7ICAgICAgICA8ZyBmaWx0ZXI9InVybCgjZmlsdGVyMV9mKSI+JiN4YTsgICAgICAgICAgPHBhdGggZD0iTTYzIDEyTC01IDg4SDYzTDk3IDUwTDYzIDEyWiIgZmlsbD0iYmxhY2siIGZpbGwtb3BhY2l0eT0iMC4zMiIvPiYjeGE7ICAgICAgICA8L2c+JiN4YTsgICAgICAgIDxwYXRoIGQ9Ik0tNSA4Nkw2MyAxMEw5NyA0OEw2MyA4NkgtNVoiIGZpbGw9InVybCgjcGFpbnQxX2xpbmVhcikiLz4mI3hhOyAgICAgICAgPHBhdGggZD0iTS01IDg2TDYzIDEwTDgwIDI5TDI5IDg2SC01WiIgZmlsbD0idXJsKCNwYWludDJfbGluZWFyKSIvPiYjeGE7ICAgICAgPC9nPiYjeGE7ICAgIDwvZz4mI3hhOyAgPC9nPiYjeGE7PC9zdmc+;sketch=1;strokeWidth=3;imageBorder=#999999;perimeterSpacing=0;" vertex="1" parent="1">
          <mxGeometry x="792" y="359" width="54.54" height="41.71" as="geometry" />
        </mxCell>
        <mxCell id="av3OSLEWApw4BITMHY0_-27" style="edgeStyle=orthogonalEdgeStyle;rounded=0;orthogonalLoop=1;jettySize=auto;html=1;" edge="1" parent="1" source="av3OSLEWApw4BITMHY0_-28" target="av3OSLEWApw4BITMHY0_-22">
          <mxGeometry relative="1" as="geometry" />
        </mxCell>
        <mxCell id="av3OSLEWApw4BITMHY0_-28" value="" style="verticalLabelPosition=bottom;html=1;verticalAlign=top;align=center;strokeColor=none;fillColor=#00BEF2;shape=mxgraph.azure.user;" vertex="1" parent="1">
          <mxGeometry x="966.25" y="390" width="47.5" height="50" as="geometry" />
        </mxCell>
        <mxCell id="av3OSLEWApw4BITMHY0_-29" style="edgeStyle=orthogonalEdgeStyle;rounded=0;orthogonalLoop=1;jettySize=auto;html=1;strokeColor=default;strokeWidth=3;align=center;verticalAlign=middle;fontFamily=Helvetica;fontSize=11;fontColor=default;labelBackgroundColor=default;startArrow=classic;startFill=1;endArrow=classic;" edge="1" parent="1" source="av3OSLEWApw4BITMHY0_-30" target="av3OSLEWApw4BITMHY0_-22">
          <mxGeometry relative="1" as="geometry">
            <Array as="points">
              <mxPoint x="730" y="380" />
              <mxPoint x="730" y="280" />
            </Array>
          </mxGeometry>
        </mxCell>
        <mxCell id="av3OSLEWApw4BITMHY0_-30" value="Business Central...." style="shape=image;verticalLabelPosition=bottom;labelBackgroundColor=#ffffff;verticalAlign=top;aspect=fixed;imageAspect=0;image=data:image/svg+xml,PHN2ZyB4bWxucz0iaHR0cDovL3d3dy53My5vcmcvMjAwMC9zdmciIHdpZHRoPSIxMDIiIGhlaWdodD0iNzgiIHZpZXdCb3g9Ii01IDEwIDEwMiA3OCIgZmlsbD0ibm9uZSI+JiN4YTsgIDxkZWZzPiYjeGE7ICAgIDxmaWx0ZXIgaWQ9ImZpbHRlcjBfZiI+JiN4YTsgICAgICA8ZmVGbG9vZCBmbG9vZC1vcGFjaXR5PSIwIiByZXN1bHQ9IkJhY2tncm91bmRJbWFnZUZpeCIvPiYjeGE7ICAgICAgPGZlQmxlbmQgbW9kZT0ibm9ybWFsIiBpbj0iU291cmNlR3JhcGhpYyIgaW4yPSJCYWNrZ3JvdW5kSW1hZ2VGaXgiIHJlc3VsdD0ic2hhcGUiLz4mI3hhOyAgICAgIDxmZUdhdXNzaWFuQmx1ciBzdGREZXZpYXRpb249IjAuNCIgcmVzdWx0PSJlZmZlY3QxX2ZvcmVncm91bmRCbHVyIi8+JiN4YTsgICAgPC9maWx0ZXI+JiN4YTsgICAgPGZpbHRlciBpZD0iZmlsdGVyMV9mIj4mI3hhOyAgICAgIDxmZUZsb29kIGZsb29kLW9wYWNpdHk9IjAiIHJlc3VsdD0iQmFja2dyb3VuZEltYWdlRml4Ii8+JiN4YTsgICAgICA8ZmVCbGVuZCBtb2RlPSJub3JtYWwiIGluPSJTb3VyY2VHcmFwaGljIiBpbjI9IkJhY2tncm91bmRJbWFnZUZpeCIgcmVzdWx0PSJzaGFwZSIvPiYjeGE7ICAgICAgPGZlR2F1c3NpYW5CbHVyIHN0ZERldmlhdGlvbj0iNCIgcmVzdWx0PSJlZmZlY3QxX2ZvcmVncm91bmRCbHVyIi8+JiN4YTsgICAgPC9maWx0ZXI+JiN4YTsgICAgPGxpbmVhckdyYWRpZW50IGlkPSJwYWludDBfbGluZWFyIiB4MT0iNDMiIHkxPSI1NSIgeDI9IjI5IiB5Mj0iMTAiIGdyYWRpZW50VW5pdHM9InVzZXJTcGFjZU9uVXNlIj4mI3hhOyAgICAgIDxzdG9wIHN0b3AtY29sb3I9IiMwRDM2QTUiLz4mI3hhOyAgICAgIDxzdG9wIG9mZnNldD0iMSIgc3RvcC1jb2xvcj0iIzExNTJENCIvPiYjeGE7ICAgIDwvbGluZWFyR3JhZGllbnQ+JiN4YTsgICAgPGxpbmVhckdyYWRpZW50IGlkPSJwYWludDFfbGluZWFyIiB4MT0iNDYiIHkxPSIxMCIgeDI9IjQ2IiB5Mj0iODYiIGdyYWRpZW50VW5pdHM9InVzZXJTcGFjZU9uVXNlIj4mI3hhOyAgICAgIDxzdG9wIHN0b3AtY29sb3I9IiM4NENBRkYiLz4mI3hhOyAgICAgIDxzdG9wIG9mZnNldD0iMSIgc3RvcC1jb2xvcj0iIzYxQjFGQiIvPiYjeGE7ICAgIDwvbGluZWFyR3JhZGllbnQ+JiN4YTsgICAgPGxpbmVhckdyYWRpZW50IGlkPSJwYWludDJfbGluZWFyIiB4MT0iMzcuNSIgeTE9IjEwIiB4Mj0iMzcuNSIgeTI9Ijg2IiBncmFkaWVudFVuaXRzPSJ1c2VyU3BhY2VPblVzZSI+JiN4YTsgICAgICA8c3RvcCBzdG9wLWNvbG9yPSIjM0I5MEY1Ii8+JiN4YTsgICAgICA8c3RvcCBvZmZzZXQ9IjEiIHN0b3AtY29sb3I9IiMyQTc4RUUiLz4mI3hhOyAgICA8L2xpbmVhckdyYWRpZW50PiYjeGE7ICAgIDxjbGlwUGF0aCBpZD0iY2xpcDAiPiYjeGE7ICAgICAgPHJlY3Qgd2lkdGg9Ijk2IiBoZWlnaHQ9Ijk2IiBmaWxsPSJ3aGl0ZSIvPiYjeGE7ICAgIDwvY2xpcFBhdGg+JiN4YTsgICAgPGNsaXBQYXRoIGlkPSJjbGlwMSI+JiN4YTsgICAgICA8cmVjdCB3aWR0aD0iOTYiIGhlaWdodD0iOTYiIGZpbGw9IndoaXRlIi8+JiN4YTsgICAgPC9jbGlwUGF0aD4mI3hhOyAgPC9kZWZzPiYjeGE7ICA8ZyBjbGlwLXBhdGg9InVybCgjY2xpcDApIj4mI3hhOyAgICA8ZyBjbGlwLXBhdGg9InVybCgjY2xpcDEpIj4mI3hhOyAgICAgIDxtYXNrIGlkPSJtYXNrMCIgbWFzay10eXBlPSJhbHBoYSIgbWFza1VuaXRzPSJ1c2VyU3BhY2VPblVzZSIgeD0iLTEiIHk9IjEwIiB3aWR0aD0iOTciIGhlaWdodD0iNzYiPiYjeGE7ICAgICAgICA8cGF0aCBkPSJNNjEuMjExNiAxMEM2Mi4zNDk2IDEwIDYzLjQzMzcgMTAuNDg0NyA2NC4xOTI1IDExLjMzMjhMOTQuNjEzNiA0NS4zMzI4Qzk1Ljk3MjMgNDYuODUxNCA5NS45NzIzIDQ5LjE0ODYgOTQuNjEzNiA1MC42NjcyTDY0LjE5MjUgODQuNjY3MkM2My40MzM3IDg1LjUxNTMgNjIuMzQ5NiA4NiA2MS4yMTE2IDg2SDMuOTQ2MzRDMC40ODg3NzcgODYgLTEuMzQwMTIgODEuOTA5NSAwLjk2NTM2NiA3OS4zMzI4TDI5IDQ4TDAuOTY1MzY2IDE2LjY2NzJDLTEuMzQwMTIgMTQuMDkwNSAwLjQ4ODc3NyAxMCAzLjk0NjM0IDEwSDYxLjIxMTZaIiBmaWxsPSJ3aGl0ZSIvPiYjeGE7ICAgICAgPC9tYXNrPiYjeGE7ICAgICAgPGcgbWFzaz0idXJsKCNtYXNrMCkiPiYjeGE7ICAgICAgICA8cGF0aCBkPSJNNjMgMTBMMjkgNDhMLTUgMTBINjNaIiBmaWxsPSJ1cmwoI3BhaW50MF9saW5lYXIpIi8+JiN4YTsgICAgICAgIDxnIGZpbHRlcj0idXJsKCNmaWx0ZXIwX2YpIj4mI3hhOyAgICAgICAgICA8cGF0aCBkPSJNNjMgMTAuNEwtNSA4Ni40SDYzTDk3IDQ4LjRMNjMgMTAuNFoiIGZpbGw9ImJsYWNrIiBmaWxsLW9wYWNpdHk9IjAuMjQiLz4mI3hhOyAgICAgICAgPC9nPiYjeGE7ICAgICAgICA8ZyBmaWx0ZXI9InVybCgjZmlsdGVyMV9mKSI+JiN4YTsgICAgICAgICAgPHBhdGggZD0iTTYzIDEyTC01IDg4SDYzTDk3IDUwTDYzIDEyWiIgZmlsbD0iYmxhY2siIGZpbGwtb3BhY2l0eT0iMC4zMiIvPiYjeGE7ICAgICAgICA8L2c+JiN4YTsgICAgICAgIDxwYXRoIGQ9Ik0tNSA4Nkw2MyAxMEw5NyA0OEw2MyA4NkgtNVoiIGZpbGw9InVybCgjcGFpbnQxX2xpbmVhcikiLz4mI3hhOyAgICAgICAgPHBhdGggZD0iTS01IDg2TDYzIDEwTDgwIDI5TDI5IDg2SC01WiIgZmlsbD0idXJsKCNwYWludDJfbGluZWFyKSIvPiYjeGE7ICAgICAgPC9nPiYjeGE7ICAgIDwvZz4mI3hhOyAgPC9nPiYjeGE7PC9zdmc+;sketch=1;strokeWidth=3;imageBorder=#999999;perimeterSpacing=0;" vertex="1" parent="1">
          <mxGeometry x="598" y="359" width="54.54" height="41.71" as="geometry" />
        </mxCell>
      </root>
    </mxGraphModel>
  </diagram>
</mxfile>
